<?xml version="1.0" encoding="UTF-8" standalone="no"?>
<svg
   width="177.9999999951111mm"
   height="195.7999999946222mm"
   viewBox="0 0 630.7086614 693.77952754"
   version="1.1"
   id="svg130"
   sodipodi:docname="trackpad acrylics.svg"
   inkscape:version="1.1 (c68e22c387, 2021-05-23)"
   xmlns:inkscape="http://www.inkscape.org/namespaces/inkscape"
   xmlns:sodipodi="http://sodipodi.sourceforge.net/DTD/sodipodi-0.dtd"
   xmlns="http://www.w3.org/2000/svg"
   xmlns:svg="http://www.w3.org/2000/svg">
  <defs
     id="defs134" />
  <sodipodi:namedview
     id="namedview132"
     pagecolor="#ffffff"
     bordercolor="#666666"
     borderopacity="1.0"
     inkscape:pageshadow="2"
     inkscape:pageopacity="0.0"
     inkscape:pagecheckerboard="0"
     inkscape:document-units="mm"
     showgrid="false"
     inkscape:zoom="1.1796795"
     inkscape:cx="336.53208"
     inkscape:cy="370.01575"
     inkscape:window-width="2560"
     inkscape:window-height="1377"
     inkscape:window-x="-8"
     inkscape:window-y="32"
     inkscape:window-maximized="1"
     inkscape:current-layer="svg130" />
  <g
     transform="rotate(180,244.03959,159.01532)"
     id="g5">
    <path
       id="polyline237"
       style="vector-effect:non-scaling-stroke;fill:none;stroke:#000000;stroke-width:0.01534;stroke-linecap:round;stroke-miterlimit:4;stroke-dasharray:none;-inkscape-stroke:hairline"
       d="m 315.00824,230.42314 0.77829,11.55854 v 0 l 2.27395,11.12453 3.66772,10.55513 4.95481,9.87052 6.13627,9.08155 7.21598,8.19527 8.19811,7.21344 9.08474,6.13411 9.8739,4.95307 10.55891,3.66646 11.12837,2.27319 11.56259,0.77805 11.56249,-0.77805 11.12844,-2.27319 10.5589,-3.66641 9.8739,-4.95312 9.0847,-6.13411 8.19817,-7.21344 7.21595,-8.19527 6.1363,-9.08155 4.95479,-9.87052 3.66772,-10.55513 2.27393,-11.12453 0.77831,-11.55854 -0.77831,-11.55846 -2.27393,-11.12458 -3.66772,-10.55517 -4.95479,-9.87048 -6.1363,-9.08154 -7.21595,-8.19531 -8.19817,-7.21341 -9.0847,-6.13415 -9.8739,-4.95308 -10.5589,-3.66641 -11.12835,-2.27318 v 0 l -6.98497,-0.50796 v -1.9e-4 l -9.08332,-0.005 -7.05686,0.51284 -11.12839,2.27314 -10.55891,3.66645 -9.8739,4.95308 -9.0847,6.13411 -8.19815,7.21345 -7.21598,8.19527 -6.13627,9.08153 -4.95481,9.87053 -3.66767,10.55517 -2.274,11.12453 -0.77829,11.55851 z" />
    <path
       id="path3"
       style="vector-effect:non-scaling-stroke;fill:none;stroke:#000000;stroke-width:0.01534;stroke-linecap:round;stroke-miterlimit:4;stroke-dasharray:none;-inkscape-stroke:hairline"
       d="m 331.75348,230.42314 0.62726,9.31507 v 0 l 1.82714,8.93483 2.94506,8.47277 3.98098,7.92868 4.93498,7.30277 5.80704,6.59484 6.59713,5.80504 7.30533,4.93327 7.93145,3.97956 8.47574,2.94406 8.93799,1.82645 9.3183,0.62707 9.31827,-0.62707 8.93798,-1.82645 8.47568,-2.94401 7.93149,-3.97961 7.30531,-4.93327 6.59712,-5.80504 5.80705,-6.59484 4.93504,-7.30277 3.98096,-7.92868 2.94507,-8.47277 1.82715,-8.93483 0.6272,-9.31507 -0.6272,-9.31504 -1.82715,-8.93486 -2.94507,-8.47273 -3.98096,-7.92874 -4.93499,-7.30271 -5.80705,-6.59485 -6.59717,-5.80503 -7.30531,-4.93329 -7.93141,-3.97959 -8.47576,-2.94402 -8.93798,-1.82649 v -3.5e-4 l -5.86539,-0.39472 -6.83383,-0.005 v 1.7e-4 l -5.93735,0.39959 -8.93799,1.82649 -8.47574,2.94402 -7.93145,3.97959 -7.30533,4.93328 -6.59713,5.80504 -5.80704,6.59485 -4.93498,7.30271 -3.98098,7.92874 -2.94506,8.47273 -1.82714,8.93482 -0.62726,9.31508 z" />
  </g>
  <g
     transform="rotate(90,299.11339,288.51221)"
     id="g22">
    <path
       id="polyline66"
       style="vector-effect:non-scaling-stroke;fill:none;stroke:#000000;stroke-width:0.01534;stroke-linecap:round;stroke-miterlimit:4;stroke-dasharray:none;-inkscape-stroke:hairline"
       d="m 153.83814,86.032686 0.65665,-0.08791 1.27572,8.7e-5 3.52711,8.9e-5 5.32813,1.31e-4 6.67886,1.31e-4 7.57941,1.76e-4 8.02968,1.76e-4 8.02972,2.19e-4 7.57939,1.75e-4 6.67886,1.32e-4 5.32817,8.8e-5 3.52703,1.32e-4 -3e-5,3.49e-4 h 1.27564 l 3e-5,-3.47e-4 -1.5e-4,-8.200095 0.0887,-0.660823 0.25021,-0.592006 0.62567,-0.709013 0.5491,-0.319901 0.62668,-0.170857 -3e-5,3.47e-4 1.61283,-0.02234 h 3.53246 l 5.33636,1.31e-4 6.68914,1.75e-4 7.59109,8.8e-5 8.04206,2.2e-4 8.04206,8.7e-5 7.59112,2.19e-4 6.68914,8.8e-5 5.33624,8.8e-5 3.53249,4.4e-5 3e-5,-3.44e-4 1.27771,8.9e-5 3e-5,3.46e-4 -0.0504,-17.61273 v -3e-5 l -24.32586,4.38e-4 -176.546432,0.0025 -37.325226,3.08e-4 h 10e-7 l -0.660944,0.0919 -0.592121,0.250163 -0.500439,0.387706 -0.385805,0.501203 -0.248307,0.590821 -0.08786,0.656435 2.31e-4,6.205819 5.21e-4,17.157567 8.63e-4,25.918853 7.91e-4,26.44832 h 7.9e-5 l 9.377228,-1.91668 6.279975,-0.42255 7.228193,0.005 6.203928,0.41777 -3.2e-5,7.1e-4 7.218186,1.47582 3.2e-5,-3.4e-4 2.235582,0.45709 8.964879,3.11531 -2.8e-5,3.4e-4 8.389235,4.21111 1.15936,0.78323 h 3e-5 l 6.56771,4.437 h -3e-5 l 6.97796,6.14254 v 0 l 1.53452,1.74345 4.60776,5.23484 3e-5,-3.5e-4 5.21997,7.72728 v 3.4e-4 l 1.93394,3.85307 2.27694,4.53655 h -3e-5 l 3.11511,8.96523 1.9426,9.60048 0.65384,9.71024 h 3e-5 l -0.6633,9.85643 -3e-5,-3e-5 -1.93237,9.4542 -3.11474,8.96512 v 0 l -4.21062,8.38955 3e-5,-3.2e-4 -5.21954,7.72711 -6.14196,6.97812 v 0 l -6.9777,6.14236 -3e-5,3.5e-4 -7.72669,5.21992 -8.388986,4.21084 -8.964681,3.115 -9.453604,1.93252 -9.855899,0.66333 -9.855933,-0.66367 -9.455761,-1.93569 h -1e-6 l 0.07893,17.77503 v 0 l 3.9e-4,32.49092 6.6e-5,8.63995 6.5e-5,8.63985 6.6e-5,8.63999 3.3e-5,17.15814 v 6.20612 h 10e-4 l 4.531216,-4.11254 4.600882,-4.02822 4.665184,-3.93973 4.724185,-3.84719 4.77785,-3.75046 4.826176,-3.64959 4.86912,-3.54467 4.906777,-3.43556 4.939012,-3.32237 4.966033,-3.20502 4.98764,-3.08358 5.00403,-2.95806 3.89112,-2.2124 3.92053,-2.16152 3.94746,-2.10967 3.97191,-2.05695 3.99394,-2.00332 4.01359,-1.94871 4.03081,-1.89324 4.04559,-1.83689 4.05786,-1.77958 4.06776,-1.72138 4.07525,-1.66221 4.08038,-1.60227 0.002,-4.3537 0.005,-12.03675 0.008,-18.18309 0.01,-22.79293 0.0112,-25.86607 0.0119,-27.40263 0.0118,-27.40254 0.0111,-25.86584 0.01,-22.79266 0.007,-18.18284 0.005,-12.03649 0.0246,-4.691199 0.17239,-0.629268 0.53154,-0.786343 0.50129,-0.385775 0.59087,-0.248187 z" />
    <path
       id="path16"
       style="vector-effect:non-scaling-stroke;fill:none;stroke:#000000;stroke-width:0.01534;stroke-linecap:round;stroke-miterlimit:4;stroke-dasharray:none;-inkscape-stroke:hairline"
       d="m 55.249293,70.667064 -0.992261,-0.13276 -1.286711,-0.641864 -0.672135,-0.672058 -0.642061,-1.286448 -0.132761,-0.992047 0.132696,-0.992046 0.374777,-0.890358 0.581753,-0.753602 0.753684,-0.581605 v 0 l 1.376139,-0.473465 1.494565,0.09884 0.889288,0.374804 0.754563,0.58165 0.583717,0.753601 0.376675,0.890359 0.133677,0.992046 -0.132663,0.992135 -0.374777,0.890356 -0.581719,0.753472 -0.753679,0.581648 -0.890501,0.374717 -0.992266,0.132629 z" />
    <path
       id="path18"
       style="vector-effect:non-scaling-stroke;fill:none;stroke:#000000;stroke-width:0.01534;stroke-linecap:round;stroke-miterlimit:4;stroke-dasharray:none;-inkscape-stroke:hairline"
       d="m 55.255805,352.10323 -0.987943,-0.13272 -1.285696,-0.64191 -0.941838,-1.06815 -0.376676,-0.89035 -0.09967,-1.49873 0.25815,-0.94561 0.797205,-1.18389 v 0 l 0.753713,-0.58165 0.890499,-0.37471 0.992233,-0.13272 0.992261,0.13272 0.8905,0.37471 0.753647,0.58169 0.797205,1.18385 0.25815,0.94564 v 1.01321 l -0.258117,0.94565 -0.482637,0.82632 -1.068215,0.93922 -0.890533,0.37471 -0.992233,0.13272 z" />
    <path
       id="path20"
       style="vector-effect:non-scaling-stroke;fill:none;stroke:#000000;stroke-width:0.01534;stroke-linecap:round;stroke-miterlimit:4;stroke-dasharray:none;-inkscape-stroke:hairline"
       d="m 275.21802,70.760107 -0.98785,-0.132761 -0.88935,-0.374761 -0.75453,-0.581692 -0.58364,-0.753514 -0.4762,-1.375937 -2.7e-4,-1.013024 0.25806,-0.945657 0.48262,-0.826325 0.67212,-0.672015 0.82645,-0.482505 0.94575,-0.258106 h 1.0134 v 0 l 0.94583,0.25815 1.18406,0.797139 0.58175,0.753515 0.37481,0.890401 0.13272,0.992091 -0.13272,0.99209 -0.37469,0.890314 -0.58174,0.753558 -0.75376,0.581649 -0.89053,0.374672 z" />
  </g>
  <g
     transform="translate(-553.44924,66.378689)"
     id="g61">
    <path
       id="polyline217"
       style="vector-effect:non-scaling-stroke;fill:none;stroke:#000000;stroke-width:0.01534;stroke-linecap:round;stroke-miterlimit:4;stroke-dasharray:none;-inkscape-stroke:hairline"
       d="m 553.44924,130.64902 0.0526,-19.86103 v 0 l 149.94529,0.13158 -4e-5,-2e-5 h 0.0125 v 0 l 0.33496,0.0228 0.32147,0.0657 0.30498,0.10586 0.28555,0.14295 0.26319,0.17747 0.23774,0.20892 0.20939,0.23751 0.17788,0.26338 0.14355,0.28615 0.10616,0.30625 0.0658,0.32341 0.0224,0.33768 -0.065,77.24476 -4e-5,5.1e-4 -1.23746,-0.21901 -3.42122,-0.60574 -5.16817,-0.91502 -6.47841,-1.14698 -7.35205,-1.30158 -7.78886,-1.37888 -7.7889,-1.37878 -7.35228,-1.30147 -6.47871,-1.14666 -5.16848,-0.91471 -3.42142,-0.60552 -1.23761,-0.21905 -0.33561,-0.0364 -0.32969,0.008 -0.32016,0.0514 -0.30743,0.0917 -0.29103,0.12951 -0.27149,0.16502 -0.24815,0.1981 -0.22159,0.22884 -0.19165,0.2571 -0.15826,0.28316 -0.12127,0.3066 -0.081,0.32785 -0.19561,1.11002 -0.54096,3.06892 -0.81719,4.63594 -1.02422,5.81109 -3.62494,20.56662 -1.16216,6.59409 -1.02399,5.81057 -0.8169,4.63533 -0.54069,3.06843 -0.19557,1.10985 -0.17476,0.56948 -0.28756,0.4481 -0.3752,0.32978 -0.43774,0.21462 -0.47518,0.10261 -0.48741,-0.007 -0.47456,-0.11208 -0.43661,-0.21471 -0.37344,-0.31405 -0.28527,-0.4105 -0.17178,-0.50365 -0.0333,-0.59363 7.09833,-101.16131 -2e-5,-5e-5 -79.7908,-5.63076 z" />
    <path
       id="path57"
       style="vector-effect:non-scaling-stroke;fill:none;stroke:#000000;stroke-width:0.01534;stroke-linecap:round;stroke-miterlimit:4;stroke-dasharray:none;-inkscape-stroke:hairline"
       d="m 622.59197,127.34482 -0.5066,0.0336 v 0 l -0.50391,-0.0343 -0.48374,-0.0992 -0.45899,-0.15975 -0.42979,-0.21589 -0.3961,-0.26767 -0.35781,-0.31503 -0.31508,-0.358 -0.26785,-0.39657 -0.21606,-0.43081 -0.15979,-0.46065 -0.099,-0.48597 -0.0338,-0.50712 0.0343,-0.50695 0.0992,-0.48589 0.15966,-0.46034 0.21576,-0.43046 0.26749,-0.39617 0.31478,-0.35756 0.35772,-0.31455 0.39623,-0.26705 0.4305,-0.21523 0.46016,-0.15905 0.48562,-0.0985 0.5066,-0.0336 0.50652,0.0343 0.48539,0.0992 0.45995,0.15979 0.43011,0.21593 0.39582,0.26767 0.35725,0.31503 0.31419,0.358 0.26685,0.39658 0.21505,0.4308 0.15896,0.46052 0.0984,0.48597 0.0335,0.50713 -0.0344,0.5069 -0.0992,0.48584 -0.15967,0.46035 -0.2158,0.43045 -0.2675,0.39618 -0.3148,0.35751 -0.35773,0.31451 -0.39632,0.2671 -0.43041,0.21523 -0.46025,0.15909 -0.48558,0.0985 z" />
    <path
       id="path59"
       style="vector-effect:non-scaling-stroke;fill:none;stroke:#000000;stroke-width:0.01534;stroke-linecap:round;stroke-miterlimit:4;stroke-dasharray:none;-inkscape-stroke:hairline"
       d="m 569.97547,123.73409 -0.50819,0.0337 9e-5,-4.3e-4 -0.50545,-0.0344 -0.48528,-0.0995 -0.46043,-0.16014 -0.43112,-0.2165 -0.39731,-0.26834 -0.35896,-0.31586 -0.31609,-0.35895 -0.26872,-0.39755 -0.21676,-0.43186 -0.16028,-0.4617 -0.0993,-0.48724 -0.0339,-0.50827 0.0344,-0.50822 0.0995,-0.48708 0.16014,-0.46148 0.21642,-0.43154 0.26828,-0.39711 0.31573,-0.35843 0.35888,-0.31525 0.39749,-0.26772 0.43177,-0.21575 0.46162,-0.15949 0.48712,-0.0987 0.50808,-0.0337 0.50814,0.0344 0.48698,0.0995 0.46136,0.16019 0.43146,0.21641 0.3971,0.26838 0.35835,0.31577 0.31516,0.35892 0.26766,0.39757 0.21581,0.43187 0.1594,0.46179 0.0987,0.4872 0.0336,0.50831 -0.0344,0.50823 -0.0995,0.48707 -0.16014,0.46143 -0.21638,0.43155 -0.26833,0.39716 -0.31573,0.35842 -0.35882,0.31526 -0.39758,0.26776 -0.43178,0.21575 -0.46166,0.15944 -0.48707,0.0988 z" />
  </g>
  <g
     transform="translate(-779.10251,35.249471)"
     id="g118">
    <path
       id="polyline193"
       style="vector-effect:non-scaling-stroke;fill:none;stroke:#000000;stroke-width:0.01534;stroke-linecap:round;stroke-miterlimit:4;stroke-dasharray:none;-inkscape-stroke:hairline"
       d="m 779.10824,240.37891 60.82166,-0.0141 9e-5,1e-5 -2.21131,31.45705 v 0 -0.0126 l -5.1e-4,-7.1e-4 -0.002,0.33929 0.0426,0.32794 0.0845,0.31354 0.12351,0.29598 0.15962,0.27548 0.19306,0.25192 0.22356,0.22532 0.25131,0.1957 0.27614,0.163 0.29823,0.12728 0.31748,0.0886 0.33399,0.0468 64.53633,4.5321 -0.002,-1.8e-4 -4.72709,25.92812 -2.1e-4,4.3e-4 -53.52214,-3.73343 -56.66532,-0.0196 0.002,-4.6e-4 -0.002,-0.45328 -0.005,-1.25322 -0.008,-1.89311 -0.009,-2.37312 -0.0103,-2.69305 -0.0109,-2.85314 -0.011,-2.85307 -0.0101,-2.6931 -0.009,-2.37312 -0.008,-1.89316 -0.005,-1.25318 -0.002,-0.45327 -0.0227,-0.33799 -0.0662,-0.32411 -0.10651,-0.30717 -0.144,-0.28743 -0.17867,-0.26465 -0.21023,-0.23892 -0.23879,-0.21022 -0.2646,-0.17872 -0.28734,-0.14404 -0.30703,-0.10656 -0.32398,-0.0661 -0.33791,-0.0227 -7.96424,7.1e-4 0.002,9.9e-4 0.006,-35.2628 z" />
    <path
       id="path64"
       style="vector-effect:non-scaling-stroke;fill:none;stroke:#000000;stroke-width:0.01534;stroke-linecap:round;stroke-miterlimit:4;stroke-dasharray:none;-inkscape-stroke:hairline"
       d="m 888.44518,287.15512 0.50664,-0.0339 2.1e-4,-4e-4 0.50419,0.0339 0.48391,0.0988 0.45915,0.15945 0.43011,0.21562 0.39648,0.26732 0.35814,0.31472 0.31536,0.35778 0.26834,0.39631 0.21637,0.43063 0.16028,0.46039 0.0994,0.48592 0.0341,0.50691 -0.0338,0.5069 -0.0988,0.48594 -0.1594,0.46039 -0.21551,0.43063 -0.26727,0.39639 -0.31459,0.35773 -0.35761,0.31477 -0.39613,0.26741 -0.43036,0.21562 -0.46021,0.15945 -0.48558,0.0989 -0.50682,0.034 -0.50664,-0.0338 -0.48558,-0.0988 -0.46021,-0.1594 -0.43037,-0.21549 -0.39613,-0.26737 -0.35751,-0.31477 -0.31459,-0.35768 -0.26711,-0.3964 -0.21549,-0.43055 -0.15931,-0.46051 -0.0987,-0.48593 -0.0338,-0.50704 0.0339,-0.507 0.0988,-0.48593 0.15931,-0.46051 0.21549,-0.43064 0.26719,-0.39644 0.31459,-0.35777 0.35761,-0.31476 0.39613,-0.26738 0.43045,-0.21556 0.46013,-0.15945 0.48558,-0.0989 z" />
    <path
       id="path66"
       style="vector-effect:non-scaling-stroke;fill:none;stroke:#000000;stroke-width:0.01534;stroke-linecap:round;stroke-miterlimit:4;stroke-dasharray:none;-inkscape-stroke:hairline"
       d="m 827.44244,284.88855 -0.24257,0.0162 2.3e-4,-3.4e-4 -0.23981,-0.016 -0.23041,-0.0469 -0.21873,-0.0756 -0.20491,-0.10239 -0.18895,-0.12706 -0.17081,-0.14966 -0.15045,-0.17032 -0.12798,-0.18885 -0.10326,-0.2054 -0.0764,-0.21988 -0.0474,-0.23226 -0.0162,-0.2427 0.0162,-0.24266 0.047,-0.23229 0.0757,-0.21988 0.10235,-0.20545 0.12706,-0.1889 0.14965,-0.1704 0.17024,-0.14975 0.18872,-0.12715 0.20527,-0.10243 0.21975,-0.0758 0.23216,-0.047 0.24248,-0.0162 0.24253,0.0159 0.23208,0.0468 0.21971,0.0757 0.20517,0.10235 0.18872,0.12701 0.17011,0.14966 0.14961,0.17028 0.12688,0.18886 0.10231,0.20539 0.0756,0.21984 0.0469,0.23234 0.0159,0.2427 -0.0162,0.24271 -0.0469,0.23239 -0.0756,0.21991 -0.10244,0.20549 -0.12701,0.18894 -0.14961,0.17037 -0.17021,0.14979 -0.18885,0.12714 -0.20521,0.10248 -0.2198,0.0757 -0.23203,0.047 z" />
    <path
       id="path68"
       style="vector-effect:non-scaling-stroke;fill:none;stroke:#000000;stroke-width:0.01534;stroke-linecap:round;stroke-miterlimit:4;stroke-dasharray:none;-inkscape-stroke:hairline"
       d="m 820.35197,284.88967 -0.24249,0.0161 h -2e-5 l -0.2398,-0.016 -0.23038,-0.0469 -0.21874,-0.0756 -0.20491,-0.10236 -0.18894,-0.127 -0.17072,-0.14971 -0.15049,-0.17024 -0.12794,-0.18885 -0.10326,-0.20531 -0.0765,-0.21983 -0.0474,-0.23222 -0.0162,-0.2426 0.0162,-0.24262 0.0469,-0.23226 0.0757,-0.21984 0.10226,-0.20535 0.12706,-0.18884 0.14961,-0.17029 0.17015,-0.14975 0.18877,-0.1271 0.20521,-0.1024 0.21972,-0.0758 0.23208,-0.047 0.24247,-0.0162 0.24248,0.016 0.232,0.0468 0.21965,0.0756 0.20522,0.10231 0.18868,0.127 0.17011,0.14967 0.14953,0.17028 0.12697,0.18881 0.1023,0.20536 0.0756,0.21982 0.0468,0.23222 0.016,0.24265 -0.016,0.24267 -0.047,0.2323 -0.0757,0.21987 -0.10239,0.2053 -0.12697,0.18891 -0.14962,0.17037 -0.17015,0.14966 -0.18872,0.12714 -0.20526,0.10239 -0.21962,0.0757 -0.23208,0.047 z" />
    <path
       id="path70"
       style="vector-effect:non-scaling-stroke;fill:none;stroke:#000000;stroke-width:0.01534;stroke-linecap:round;stroke-miterlimit:4;stroke-dasharray:none;-inkscape-stroke:hairline"
       d="m 813.2622,284.89033 -0.24239,0.0161 3e-5,-1.2e-4 -0.23981,-0.016 -0.23037,-0.0469 -0.21865,-0.0757 -0.20492,-0.10234 -0.18889,-0.12702 -0.17081,-0.14965 -0.15036,-0.1702 -0.12802,-0.1888 -0.10327,-0.20527 -0.0764,-0.21979 -0.0474,-0.23221 -0.0164,-0.24257 0.0161,-0.24257 0.0469,-0.23217 0.0756,-0.21979 0.10236,-0.20531 0.12696,-0.1889 0.14953,-0.17019 0.17024,-0.1497 0.18867,-0.12706 0.20527,-0.10238 0.21957,-0.0757 0.23204,-0.0469 0.24247,-0.0162 0.24249,0.016 0.23209,0.0468 0.21957,0.0756 0.20517,0.1023 0.18862,0.12698 0.17021,0.14966 0.14957,0.17028 0.12688,0.18877 0.1023,0.20531 0.0756,0.21974 0.0468,0.23222 0.016,0.2426 -0.0161,0.24257 -0.0469,0.23226 -0.0756,0.2198 -0.1023,0.20531 -0.12697,0.18889 -0.14966,0.17024 -0.17019,0.1497 -0.18867,0.12706 -0.20523,0.10239 -0.21957,0.0757 -0.23218,0.0469 z" />
    <path
       id="path72"
       style="vector-effect:non-scaling-stroke;fill:none;stroke:#000000;stroke-width:0.01534;stroke-linecap:round;stroke-miterlimit:4;stroke-dasharray:none;-inkscape-stroke:hairline"
       d="m 806.173,284.89089 -0.24247,0.016 1.1e-4,-1.5e-4 -0.23981,-0.016 -0.23028,-0.0469 -0.21874,-0.0757 -0.20482,-0.10231 -0.18899,-0.12706 -0.17082,-0.14957 -0.15035,-0.17024 -0.12798,-0.18876 -0.10327,-0.20527 -0.0765,-0.21974 -0.0474,-0.23217 -0.0163,-0.24252 0.0161,-0.24257 0.0469,-0.23217 0.0757,-0.21975 0.10236,-0.20531 0.12696,-0.18881 0.14953,-0.17024 0.1701,-0.14961 0.18877,-0.12706 0.20518,-0.10239 0.21961,-0.0756 0.23204,-0.0469 0.24244,-0.0162 0.24248,0.016 0.23208,0.0469 0.21957,0.0757 0.20517,0.10231 0.18864,0.12701 0.17015,0.14961 0.14962,0.17025 0.12688,0.18872 0.10225,0.2053 0.0756,0.21971 0.0468,0.23222 0.016,0.24257 -0.0161,0.24252 -0.0469,0.23221 -0.0756,0.21975 -0.10231,0.2053 -0.12697,0.18881 -0.14961,0.17024 -0.17015,0.14967 -0.18863,0.12705 -0.20522,0.10234 -0.21966,0.0757 -0.232,0.0469 z" />
    <path
       id="path74"
       style="vector-effect:non-scaling-stroke;fill:none;stroke:#000000;stroke-width:0.01534;stroke-linecap:round;stroke-miterlimit:4;stroke-dasharray:none;-inkscape-stroke:hairline"
       d="m 799.08384,284.89127 -0.24239,0.0161 1.1e-4,-3e-4 -0.23982,-0.016 -0.23031,-0.0469 -0.2187,-0.0757 -0.20491,-0.1023 -0.1889,-0.12696 -0.17076,-0.14966 -0.15045,-0.1702 -0.12794,-0.18872 -0.10327,-0.2053 -0.0764,-0.21971 -0.0475,-0.23208 -0.0162,-0.24253 0.016,-0.24253 0.047,-0.23217 0.0756,-0.2197 0.10235,-0.2053 0.12697,-0.18876 0.14952,-0.17025 0.17011,-0.14962 0.18876,-0.127 0.20518,-0.10235 0.21957,-0.0756 0.23213,-0.0469 0.24244,-0.0161 0.24239,0.016 0.23199,0.0468 0.21966,0.0757 0.20518,0.10231 0.18867,0.12696 0.17016,0.14965 0.14948,0.1702 0.12697,0.18872 0.10222,0.20527 0.0756,0.21974 0.0468,0.23216 0.0161,0.24255 -0.0161,0.24252 -0.0469,0.23216 -0.0756,0.2197 -0.1023,0.20532 -0.12698,0.18876 -0.14953,0.17023 -0.17023,0.14962 -0.18864,0.12702 -0.20518,0.10234 -0.2197,0.0756 -0.23198,0.0469 z" />
    <path
       id="path76"
       style="vector-effect:non-scaling-stroke;fill:none;stroke:#000000;stroke-width:0.01534;stroke-linecap:round;stroke-miterlimit:4;stroke-dasharray:none;-inkscape-stroke:hairline"
       d="m 847.38803,284.40657 -0.48712,0.0991 -0.46162,0.15985 -0.43168,0.21605 -0.39737,0.26798 -0.3586,0.31552 -0.31556,0.35856 -0.26802,0.39728 -0.21612,0.43155 -0.15979,0.46153 -0.0991,0.48698 -0.034,0.5081 0.034,0.50812 0.0991,0.48708 0.15983,0.46144 0.21615,0.43164 0.26803,0.39727 0.31551,0.35861 0.35865,0.31547 0.39732,0.26803 0.43169,0.21609 0.46157,0.1598 0.48716,0.0991 0.50822,0.0341 0.50835,-0.034 0.48712,-0.0991 0.46158,-0.1598 0.43176,-0.2161 0.39736,-0.26794 0.35866,-0.31552 0.3156,-0.35855 0.26807,-0.39733 0.2161,-0.43163 0.15989,-0.46153 0.0991,-0.48708 0.0341,-0.50812 -0.0343,-0.50815 -0.0997,-0.48707 -0.16081,-0.46148 -0.21716,-0.43164 -0.26903,-0.39727 -0.31644,-0.35857 -0.3594,-0.31547 -0.39757,-0.26798 -0.43142,-0.21602 -0.46065,-0.15979 -0.48545,-0.0991 -0.50564,-0.034 -3e-5,-5e-5 -0.50817,0.034 z" />
    <path
       id="path78"
       style="vector-effect:non-scaling-stroke;fill:none;stroke:#000000;stroke-width:0.01534;stroke-linecap:round;stroke-miterlimit:4;stroke-dasharray:none;-inkscape-stroke:hairline"
       d="m 827.44521,277.79152 -0.24257,0.0162 10e-4,-4e-5 -0.23985,-0.0159 -0.23042,-0.0468 -0.21873,-0.0756 -0.20491,-0.1023 -0.18894,-0.12698 -0.17081,-0.14956 -0.1504,-0.17029 -0.12794,-0.18872 -0.10331,-0.20531 -0.0764,-0.21979 -0.0474,-0.2322 -0.0162,-0.24263 0.0162,-0.24257 0.0471,-0.23225 0.0757,-0.21983 0.10244,-0.20541 0.12709,-0.18888 0.14976,-0.17034 0.17019,-0.14974 0.18889,-0.1271 0.20531,-0.10248 0.21975,-0.0757 0.23217,-0.0471 0.24261,-0.0162 0.24253,0.0159 0.23208,0.0468 0.21969,0.0756 0.20523,0.10222 0.18877,0.12697 0.17014,0.14956 0.14958,0.17017 0.12688,0.18875 0.10221,0.20531 0.0756,0.21975 0.0468,0.23221 0.0159,0.24261 -0.0162,0.24263 -0.0471,0.23224 -0.0757,0.21988 -0.10247,0.2054 -0.12711,0.1889 -0.14974,0.17037 -0.17029,0.14978 -0.18881,0.12716 -0.20534,0.10247 -0.2198,0.0757 -0.23212,0.0471 z" />
    <path
       id="path80"
       style="vector-effect:non-scaling-stroke;fill:none;stroke:#000000;stroke-width:0.01534;stroke-linecap:round;stroke-miterlimit:4;stroke-dasharray:none;-inkscape-stroke:hairline"
       d="m 820.35394,277.79434 -0.24248,0.0162 0.001,-1.4e-4 -0.23985,-0.016 -0.23033,-0.0468 -0.2187,-0.0756 -0.20491,-0.10225 -0.18894,-0.12702 -0.17076,-0.14956 -0.15041,-0.17021 -0.12793,-0.1888 -0.10322,-0.20531 -0.0765,-0.2197 -0.0473,-0.23217 -0.0162,-0.24261 0.0162,-0.24262 0.0469,-0.23216 0.0758,-0.2198 0.10239,-0.20535 0.12697,-0.18885 0.14975,-0.17033 0.17019,-0.1497 0.18867,-0.1271 0.20532,-0.10243 0.2197,-0.0757 0.23217,-0.0469 0.24244,-0.0162 0.24247,0.016 0.23218,0.0468 0.21961,0.0756 0.20519,0.10223 0.18867,0.12701 0.17019,0.14957 0.14953,0.17019 0.12688,0.18872 0.10217,0.20531 0.0757,0.21975 0.0467,0.23221 0.0159,0.24253 -0.0162,0.24261 -0.047,0.23226 -0.0757,0.21983 -0.10244,0.20536 -0.12701,0.18889 -0.1497,0.17029 -0.17021,0.14974 -0.18884,0.1271 -0.20518,0.10243 -0.2197,0.0757 -0.23213,0.047 z" />
    <path
       id="path82"
       style="vector-effect:non-scaling-stroke;fill:none;stroke:#000000;stroke-width:0.01534;stroke-linecap:round;stroke-miterlimit:4;stroke-dasharray:none;-inkscape-stroke:hairline"
       d="m 813.26374,277.79621 -0.2424,0.0162 10e-4,2e-5 -0.2398,-0.0159 -0.23037,-0.0469 -0.21874,-0.0756 -0.20483,-0.1023 -0.18893,-0.12697 -0.17077,-0.14962 -0.15041,-0.17019 -0.12798,-0.18877 -0.10317,-0.20531 -0.0765,-0.2197 -0.0474,-0.23216 -0.0162,-0.24253 0.0161,-0.24257 0.0469,-0.23217 0.0758,-0.21975 0.10226,-0.20539 0.12705,-0.18872 0.14961,-0.17029 0.17016,-0.14975 0.18872,-0.127 0.2053,-0.10244 0.21967,-0.0757 0.23212,-0.047 0.24243,-0.0162 0.2424,0.0159 0.23213,0.0469 0.21957,0.0756 0.20526,0.10226 0.18864,0.12697 0.17014,0.14962 0.14954,0.17015 0.12691,0.18876 0.10222,0.20526 0.0756,0.21975 0.0468,0.23217 0.016,0.24253 -0.0161,0.24261 -0.047,0.23217 -0.0757,0.21979 -0.10234,0.20531 -0.12706,0.18881 -0.14962,0.17032 -0.17019,0.14971 -0.18867,0.12705 -0.20518,0.1024 -0.21971,0.0758 -0.23217,0.0469 z" />
    <path
       id="path84"
       style="vector-effect:non-scaling-stroke;fill:none;stroke:#000000;stroke-width:0.01534;stroke-linecap:round;stroke-miterlimit:4;stroke-dasharray:none;-inkscape-stroke:hairline"
       d="m 806.17418,277.79771 -0.24248,0.0161 10e-4,2e-5 -0.23972,-0.016 -0.23036,-0.0469 -0.21874,-0.0756 -0.20482,-0.1023 -0.18895,-0.12697 -0.17076,-0.14957 -0.15045,-0.1702 -0.12793,-0.18877 -0.10323,-0.20525 -0.0765,-0.21971 -0.0474,-0.23217 -0.0162,-0.24252 0.0162,-0.24253 0.0469,-0.23216 0.0756,-0.21975 0.10227,-0.20527 0.12705,-0.1888 0.14961,-0.17025 0.17016,-0.1497 0.18876,-0.127 0.20517,-0.10236 0.21971,-0.0757 0.23204,-0.0469 0.24244,-0.0161 0.24239,0.016 0.23207,0.0468 0.21967,0.0756 0.20509,0.10234 0.18875,0.12693 0.17008,0.14957 0.14956,0.1702 0.12689,0.18876 0.10231,0.20527 0.0756,0.2197 0.0468,0.23216 0.016,0.24253 -0.016,0.24253 -0.0471,0.23217 -0.0756,0.21979 -0.10243,0.20531 -0.12697,0.18876 -0.14962,0.17029 -0.17019,0.14965 -0.18867,0.12705 -0.20518,0.10236 -0.21966,0.0757 -0.23209,0.047 z" />
    <path
       id="path86"
       style="vector-effect:non-scaling-stroke;fill:none;stroke:#000000;stroke-width:0.01534;stroke-linecap:round;stroke-miterlimit:4;stroke-dasharray:none;-inkscape-stroke:hairline"
       d="m 799.08485,277.79865 -0.24244,0.0162 10e-4,1.6e-4 -0.23976,-0.016 -0.23036,-0.0469 -0.2187,-0.0756 -0.20492,-0.10226 -0.18885,-0.12702 -0.17076,-0.14957 -0.15041,-0.1702 -0.12798,-0.18872 -0.10326,-0.20525 -0.0764,-0.21967 -0.0474,-0.23217 -0.0162,-0.24252 0.016,-0.24249 0.0471,-0.23217 0.0756,-0.2197 0.10236,-0.20526 0.12696,-0.1888 0.14961,-0.1702 0.17016,-0.14967 0.18876,-0.127 0.20518,-0.10236 0.21957,-0.0756 0.23212,-0.0469 0.2424,-0.0161 0.24243,0.016 0.232,0.0468 0.21971,0.0756 0.20517,0.10227 0.18863,0.127 0.17016,0.14958 0.14952,0.1702 0.12693,0.18872 0.10221,0.20522 0.0756,0.21974 0.0468,0.23213 0.016,0.24252 -0.0161,0.24253 -0.0469,0.23216 -0.0756,0.2197 -0.10244,0.20531 -0.12697,0.18877 -0.14952,0.17024 -0.17016,0.14962 -0.18875,0.12706 -0.20519,0.10233 -0.2197,0.0757 -0.23199,0.0469 z" />
    <path
       id="path88"
       style="vector-effect:non-scaling-stroke;fill:none;stroke:#000000;stroke-width:0.01534;stroke-linecap:round;stroke-miterlimit:4;stroke-dasharray:none;-inkscape-stroke:hairline"
       d="m 827.45002,270.69748 -0.24262,0.0162 10e-5,-6e-5 -0.23985,-0.0159 -0.23049,-0.0468 -0.21874,-0.0756 -0.20501,-0.10221 -0.18894,-0.12692 -0.17081,-0.14958 -0.1504,-0.17016 -0.12793,-0.18867 -0.10327,-0.20522 -0.0764,-0.2197 -0.0474,-0.23216 -0.0162,-0.24253 0.0162,-0.24249 0.0471,-0.23221 0.0757,-0.21975 0.10245,-0.20531 0.12708,-0.18884 0.14976,-0.1703 0.17028,-0.14965 0.18886,-0.1271 0.2053,-0.10244 0.21983,-0.0757 0.23221,-0.047 0.24257,-0.0162 0.24253,0.0159 0.23213,0.0468 0.2197,0.0755 0.2053,0.10226 0.18878,0.12692 0.17015,0.1495 0.14957,0.1701 0.12692,0.18872 0.10226,0.20518 0.0756,0.2197 0.0467,0.23212 0.0159,0.24254 -0.0161,0.24252 -0.0471,0.23216 -0.0757,0.2198 -0.10239,0.2053 -0.12719,0.1888 -0.14975,0.17034 -0.17032,0.1497 -0.1888,0.12714 -0.20541,0.10243 -0.21974,0.0758 -0.23222,0.0471 z" />
    <path
       id="path90"
       style="vector-effect:non-scaling-stroke;fill:none;stroke:#000000;stroke-width:0.01534;stroke-linecap:round;stroke-miterlimit:4;stroke-dasharray:none;-inkscape-stroke:hairline"
       d="m 820.35792,270.70076 -0.24258,0.0162 v -1.9e-4 l -0.23984,-0.0159 -0.23046,-0.0468 -0.21869,-0.0756 -0.20491,-0.10225 -0.18894,-0.12698 -0.17069,-0.14953 -0.15049,-0.17014 -0.12794,-0.18872 -0.10321,-0.20522 -0.0764,-0.2197 -0.0474,-0.23218 -0.0162,-0.24252 0.0162,-0.24253 0.047,-0.23216 0.0758,-0.21975 0.10234,-0.20527 0.1271,-0.1888 0.14966,-0.17029 0.17025,-0.1497 0.18872,-0.1271 0.20538,-0.10239 0.21972,-0.0757 0.23212,-0.047 0.24257,-0.0162 0.24247,0.0159 0.23214,0.0468 0.21961,0.0755 0.20526,0.10226 0.18868,0.12693 0.17015,0.14957 0.14957,0.17011 0.12688,0.18872 0.1023,0.20522 0.0755,0.21965 0.0468,0.23214 0.0159,0.24252 -0.0161,0.24257 -0.047,0.23216 -0.0757,0.21975 -0.10244,0.20531 -0.1271,0.18885 -0.14966,0.17029 -0.17024,0.1497 -0.1889,0.1271 -0.20522,0.10243 -0.21975,0.0758 -0.23207,0.0471 z" />
    <path
       id="path92"
       style="vector-effect:non-scaling-stroke;fill:none;stroke:#000000;stroke-width:0.01534;stroke-linecap:round;stroke-miterlimit:4;stroke-dasharray:none;-inkscape-stroke:hairline"
       d="m 813.26696,270.70339 -0.24239,0.0161 7e-5,-1.4e-4 -0.23986,-0.0159 -0.23036,-0.0468 -0.21874,-0.0756 -0.20483,-0.1023 -0.18889,-0.12693 -0.17082,-0.14957 -0.1504,-0.17015 -0.12789,-0.18867 -0.10332,-0.20531 -0.0764,-0.21966 -0.0474,-0.23213 -0.0162,-0.24252 0.0162,-0.24253 0.047,-0.23217 0.0757,-0.2197 0.10239,-0.20531 0.12696,-0.18876 0.1497,-0.17028 0.17021,-0.14967 0.18872,-0.12705 0.20526,-0.10244 0.21971,-0.0756 0.23212,-0.047 0.24248,-0.0162 0.24248,0.0159 0.23208,0.0468 0.21962,0.0756 0.20526,0.10225 0.18859,0.12692 0.17016,0.14958 0.14948,0.17011 0.12697,0.18872 0.10226,0.20523 0.0755,0.2197 0.0468,0.23216 0.016,0.24248 -0.0162,0.24253 -0.0469,0.23217 -0.0758,0.21974 -0.10239,0.20531 -0.12701,0.18881 -0.14966,0.17028 -0.1702,0.14966 -0.1888,0.1271 -0.20531,0.1024 -0.21962,0.0756 -0.23216,0.047 z" />
    <path
       id="path94"
       style="vector-effect:non-scaling-stroke;fill:none;stroke:#000000;stroke-width:0.01534;stroke-linecap:round;stroke-miterlimit:4;stroke-dasharray:none;-inkscape-stroke:hairline"
       d="m 806.17697,270.70536 -0.24252,0.0162 1.2e-4,-3.2e-4 -0.2398,-0.016 -0.23038,-0.0468 -0.21865,-0.0756 -0.20491,-0.10226 -0.1889,-0.12697 -0.17071,-0.14957 -0.1505,-0.17015 -0.1279,-0.18871 -0.10326,-0.20523 -0.0764,-0.2197 -0.0473,-0.23213 -0.0162,-0.24248 0.0161,-0.24252 0.0469,-0.23218 0.0757,-0.2197 0.10239,-0.20526 0.12697,-0.18876 0.14966,-0.17029 0.17024,-0.14966 0.18872,-0.127 0.20526,-0.10236 0.21961,-0.0757 0.23208,-0.047 0.24249,-0.0161 0.24248,0.016 0.23209,0.0468 0.21961,0.0756 0.20518,0.1023 0.18867,0.12697 0.17011,0.14952 0.14957,0.17016 0.12688,0.18872 0.10217,0.20522 0.0756,0.2197 0.0468,0.23209 0.0159,0.24252 -0.0161,0.24252 -0.0469,0.23216 -0.0757,0.21971 -0.10233,0.20531 -0.12703,0.18881 -0.14961,0.17023 -0.17015,0.14962 -0.18876,0.1271 -0.20527,0.10235 -0.21961,0.0757 -0.23209,0.047 z" />
    <path
       id="path96"
       style="vector-effect:non-scaling-stroke;fill:none;stroke:#000000;stroke-width:0.01534;stroke-linecap:round;stroke-miterlimit:4;stroke-dasharray:none;-inkscape-stroke:hairline"
       d="m 799.08728,270.70686 -0.24247,0.0162 2.4e-4,3e-5 -0.23972,-0.016 -0.23037,-0.0468 -0.21873,-0.0756 -0.20491,-0.10226 -0.18885,-0.12692 -0.17078,-0.14962 -0.1504,-0.17016 -0.12793,-0.18871 -0.10335,-0.20522 -0.0764,-0.21971 -0.0474,-0.23207 -0.0162,-0.24249 0.0161,-0.24252 0.0469,-0.23212 0.0757,-0.21971 0.10235,-0.20526 0.12696,-0.18876 0.14962,-0.17025 0.17015,-0.14962 0.18872,-0.12706 0.20527,-0.10233 0.21962,-0.0757 0.23208,-0.0469 0.24243,-0.0161 0.24252,0.016 0.232,0.0468 0.21957,0.0756 0.20527,0.10227 0.18863,0.12692 0.17015,0.14961 0.14948,0.17015 0.12697,0.18868 0.10222,0.20526 0.0756,0.21966 0.0468,0.23213 0.016,0.24252 -0.0161,0.24245 -0.0469,0.23216 -0.0757,0.2197 -0.10226,0.20527 -0.12706,0.18876 -0.14952,0.17029 -0.17024,0.14961 -0.18868,0.12706 -0.20522,0.10234 -0.21966,0.0757 -0.23209,0.0469 z" />
    <path
       id="path98"
       style="vector-effect:non-scaling-stroke;fill:none;stroke:#000000;stroke-width:0.01534;stroke-linecap:round;stroke-miterlimit:4;stroke-dasharray:none;-inkscape-stroke:hairline"
       d="m 827.45377,263.60567 -0.24261,0.0162 2.3e-4,7.4e-4 -0.23988,-0.0159 -0.23046,-0.0468 -0.21878,-0.0755 -0.20501,-0.10222 -0.18893,-0.12688 -0.17086,-0.14953 -0.1504,-0.17011 -0.12794,-0.18867 -0.10326,-0.20513 -0.0765,-0.21971 -0.0474,-0.23203 -0.0162,-0.24248 0.0162,-0.24249 0.047,-0.23212 0.0757,-0.2197 0.10238,-0.20527 0.12711,-0.18876 0.14975,-0.1702 0.17028,-0.14966 0.18889,-0.1271 0.20531,-0.10235 0.21975,-0.0756 0.23221,-0.0471 0.24262,-0.0162 0.24261,0.0159 0.23213,0.0468 0.21979,0.0755 0.20517,0.10222 0.1888,0.12688 0.17017,0.14952 0.14961,0.17007 0.12692,0.18868 0.10226,0.20518 0.0756,0.21961 0.0468,0.23208 0.0159,0.24243 -0.0162,0.24244 -0.0471,0.23217 -0.0758,0.21971 -0.1024,0.20521 -0.1271,0.18882 -0.14975,0.17024 -0.17029,0.14966 -0.18889,0.12705 -0.20535,0.10243 -0.21979,0.0757 -0.23221,0.0471 z" />
    <path
       id="path100"
       style="vector-effect:non-scaling-stroke;fill:none;stroke:#000000;stroke-width:0.01534;stroke-linecap:round;stroke-miterlimit:4;stroke-dasharray:none;-inkscape-stroke:hairline"
       d="m 820.36111,263.60876 -0.24257,0.0162 v 1e-4 l -0.23985,-0.0159 -0.23037,-0.0468 -0.21873,-0.0756 -0.20497,-0.10221 -0.18893,-0.12693 -0.17077,-0.14957 -0.15045,-0.17007 -0.12794,-0.18872 -0.10321,-0.20517 -0.0764,-0.21966 -0.0474,-0.23212 -0.0162,-0.24244 0.0162,-0.24252 0.0469,-0.23209 0.0757,-0.2197 0.10238,-0.20531 0.12706,-0.18876 0.14975,-0.1702 0.17019,-0.1497 0.18885,-0.12702 0.20522,-0.10243 0.21975,-0.0756 0.23221,-0.047 0.24248,-0.0162 0.24257,0.0159 0.23213,0.0468 0.2197,0.0756 0.20518,0.10222 0.18877,0.12688 0.17014,0.14957 0.14962,0.1701 0.12688,0.18864 0.10222,0.20517 0.0756,0.21966 0.0468,0.23208 0.0159,0.24244 -0.0162,0.24252 -0.0469,0.23213 -0.0756,0.2197 -0.10239,0.20527 -0.12709,0.18881 -0.14975,0.17028 -0.17029,0.14966 -0.1888,0.12701 -0.20531,0.10243 -0.2198,0.0758 -0.23212,0.047 z" />
    <path
       id="path102"
       style="vector-effect:non-scaling-stroke;fill:none;stroke:#000000;stroke-width:0.01534;stroke-linecap:round;stroke-miterlimit:4;stroke-dasharray:none;-inkscape-stroke:hairline"
       d="m 813.26972,263.61148 -0.24249,0.0162 9e-5,2.3e-4 -0.23985,-0.0159 -0.23036,-0.0468 -0.21879,-0.0756 -0.20487,-0.10221 -0.18893,-0.12698 -0.17073,-0.14947 -0.15041,-0.17021 -0.12797,-0.18867 -0.10319,-0.20518 -0.0765,-0.21966 -0.0473,-0.23212 -0.0162,-0.24244 0.016,-0.24248 0.047,-0.23212 0.0757,-0.21971 0.10235,-0.2053 0.1271,-0.18872 0.14961,-0.17029 0.17025,-0.14961 0.1888,-0.12706 0.20522,-0.10244 0.21971,-0.0757 0.23217,-0.0469 0.24247,-0.0162 0.24244,0.016 0.23209,0.0468 0.21969,0.0756 0.20518,0.10221 0.18877,0.12697 0.1701,0.14948 0.14953,0.17011 0.12698,0.18872 0.10216,0.20518 0.0756,0.21966 0.0468,0.23208 0.016,0.24248 -0.0161,0.24248 -0.0471,0.23213 -0.0756,0.21974 -0.10235,0.20527 -0.1271,0.18876 -0.14966,0.17029 -0.17023,0.14962 -0.18881,0.12705 -0.20532,0.10243 -0.21965,0.0756 -0.23212,0.047 z" />
    <path
       id="path104"
       style="vector-effect:non-scaling-stroke;fill:none;stroke:#000000;stroke-width:0.01534;stroke-linecap:round;stroke-miterlimit:4;stroke-dasharray:none;-inkscape-stroke:hairline"
       d="m 806.1792,263.61383 -0.24248,0.0161 1.8e-4,3.2e-4 -0.23985,-0.016 -0.23036,-0.0467 -0.21874,-0.0756 -0.20487,-0.10226 -0.18885,-0.12692 -0.17081,-0.14957 -0.1504,-0.17011 -0.12794,-0.18872 -0.10327,-0.20522 -0.0764,-0.21967 -0.0474,-0.23207 -0.0162,-0.24249 0.0161,-0.24248 0.0469,-0.23212 0.0756,-0.2197 0.10235,-0.20522 0.1271,-0.18881 0.14961,-0.1702 0.17016,-0.14966 0.18876,-0.12706 0.20532,-0.10234 0.21965,-0.0757 0.23212,-0.047 0.2424,-0.0161 0.24257,0.0159 0.23208,0.0468 0.21961,0.0756 0.20519,0.10225 0.18867,0.12688 0.17015,0.14953 0.14948,0.17015 0.12697,0.18868 0.10222,0.20522 0.0756,0.21962 0.0468,0.23212 0.016,0.24249 -0.0162,0.24247 -0.0469,0.23213 -0.0757,0.2197 -0.10233,0.20531 -0.12706,0.18872 -0.14962,0.17024 -0.17029,0.14966 -0.18867,0.12705 -0.20531,0.10235 -0.21962,0.0758 -0.23208,0.047 z" />
    <path
       id="path106"
       style="vector-effect:non-scaling-stroke;fill:none;stroke:#000000;stroke-width:0.01534;stroke-linecap:round;stroke-miterlimit:4;stroke-dasharray:none;-inkscape-stroke:hairline"
       d="m 799.08912,263.6157 -0.24239,0.0161 1.6e-4,8.2e-4 -0.2399,-0.016 -0.23027,-0.0468 -0.21874,-0.0756 -0.20492,-0.10227 -0.18889,-0.12693 -0.17073,-0.14956 -0.15045,-0.17011 -0.12789,-0.18872 -0.10335,-0.20518 -0.0764,-0.2197 -0.0473,-0.23208 -0.0162,-0.24248 0.0161,-0.24248 0.0469,-0.23209 0.0757,-0.21974 0.10239,-0.20522 0.1271,-0.18877 0.14957,-0.1702 0.1702,-0.14962 0.18872,-0.127 0.20526,-0.10235 0.21962,-0.0757 0.23208,-0.047 0.24248,-0.0161 0.2424,0.016 0.23217,0.0468 0.21956,0.0756 0.20518,0.10226 0.18872,0.12692 0.17011,0.14958 0.14952,0.17011 0.12693,0.18872 0.10231,0.20517 0.0756,0.21967 0.0467,0.23207 0.016,0.24248 -0.0161,0.24253 -0.0468,0.23208 -0.0756,0.2197 -0.1024,0.20527 -0.12705,0.18875 -0.14956,0.17021 -0.17025,0.14966 -0.18872,0.127 -0.20526,0.10236 -0.21962,0.0756 -0.23208,0.047 z" />
    <path
       id="path108"
       style="vector-effect:non-scaling-stroke;fill:none;stroke:#000000;stroke-width:0.01534;stroke-linecap:round;stroke-miterlimit:4;stroke-dasharray:none;-inkscape-stroke:hairline"
       d="m 827.45713,256.5163 -0.24253,0.0162 h 1.2e-4 l -0.23993,-0.0159 -0.2305,-0.0468 -0.21878,-0.0756 -0.20497,-0.10218 -0.18897,-0.12687 -0.17081,-0.14953 -0.1505,-0.17011 -0.12798,-0.18863 -0.10326,-0.20514 -0.0764,-0.21961 -0.0474,-0.23204 -0.0162,-0.24239 0.0161,-0.24248 0.0471,-0.23208 0.0757,-0.21966 0.10244,-0.20523 0.1271,-0.18871 0.14966,-0.1702 0.17029,-0.14961 0.1888,-0.12705 0.2054,-0.10236 0.21975,-0.0757 0.23221,-0.0469 0.24252,-0.0162 0.24261,0.0159 0.23217,0.0468 0.21975,0.0756 0.20527,0.10221 0.18871,0.12693 0.17016,0.14948 0.1497,0.17006 0.12688,0.18864 0.10231,0.20518 0.0756,0.21957 0.0467,0.23203 0.016,0.24244 -0.0162,0.24244 -0.047,0.23207 -0.0757,0.21962 -0.10239,0.20522 -0.12719,0.18872 -0.14966,0.17025 -0.17038,0.14962 -0.1888,0.127 -0.2053,0.10239 -0.21985,0.0758 -0.23221,0.0469 z" />
    <path
       id="path110"
       style="vector-effect:non-scaling-stroke;fill:none;stroke:#000000;stroke-width:0.01534;stroke-linecap:round;stroke-miterlimit:4;stroke-dasharray:none;-inkscape-stroke:hairline"
       d="m 820.36437,256.51902 -0.24252,0.0162 v -9e-5 l -0.23985,-0.0159 -0.23046,-0.0468 -0.21878,-0.0756 -0.20491,-0.10217 -0.18893,-0.12693 -0.17083,-0.14952 -0.15045,-0.17007 -0.12797,-0.18864 -0.10326,-0.20521 -0.0764,-0.21963 -0.0474,-0.23207 -0.0162,-0.24244 0.0162,-0.24244 0.0469,-0.23208 0.0757,-0.21965 0.10243,-0.20527 0.12701,-0.18872 0.14967,-0.1702 0.17032,-0.14966 0.18872,-0.12701 0.2054,-0.10235 0.21975,-0.0757 0.23212,-0.047 0.24257,-0.0161 0.24252,0.0159 0.23217,0.0468 0.21962,0.0756 0.20531,0.1022 0.18867,0.12689 0.17016,0.14953 0.14956,0.17006 0.12698,0.18872 0.10225,0.20513 0.0756,0.21962 0.0468,0.23204 0.0159,0.24239 -0.0162,0.24249 -0.0471,0.23207 -0.0756,0.21971 -0.10236,0.20518 -0.12709,0.1888 -0.14971,0.1702 -0.17029,0.14966 -0.1888,0.12701 -0.20531,0.10239 -0.21974,0.0757 -0.23217,0.0469 z" />
    <path
       id="path112"
       style="vector-effect:non-scaling-stroke;fill:none;stroke:#000000;stroke-width:0.01534;stroke-linecap:round;stroke-miterlimit:4;stroke-dasharray:none;-inkscape-stroke:hairline"
       d="m 813.27263,256.52155 -0.24248,0.0162 v 3e-5 l -0.23985,-0.0159 -0.23037,-0.0468 -0.21882,-0.0756 -0.20492,-0.10223 -0.18884,-0.12688 -0.17078,-0.14957 -0.15045,-0.17011 -0.12793,-0.18863 -0.10331,-0.20522 -0.0764,-0.21962 -0.0473,-0.23208 -0.0162,-0.24239 0.0162,-0.24248 0.0469,-0.23208 0.0757,-0.2197 0.10235,-0.20522 0.12709,-0.18873 0.14962,-0.17019 0.17029,-0.14966 0.18876,-0.12705 0.20527,-0.1024 0.2197,-0.0756 0.23221,-0.0469 0.24244,-0.0161 0.24252,0.0159 0.23209,0.0468 0.2197,0.0756 0.20517,0.10226 0.18877,0.12687 0.17015,0.14953 0.14948,0.17011 0.12697,0.18864 0.10222,0.20517 0.0756,0.21966 0.0468,0.23204 0.016,0.24243 -0.0162,0.24249 -0.0468,0.23208 -0.0757,0.21966 -0.10234,0.20527 -0.12706,0.18875 -0.14966,0.17025 -0.17028,0.14962 -0.18877,0.127 -0.20522,0.10239 -0.21979,0.0757 -0.23212,0.047 z" />
    <path
       id="path114"
       style="vector-effect:non-scaling-stroke;fill:none;stroke:#000000;stroke-width:0.01534;stroke-linecap:round;stroke-miterlimit:4;stroke-dasharray:none;-inkscape-stroke:hairline"
       d="m 806.18172,256.5238 -0.24248,0.0162 2e-4,1.1e-4 -0.23989,-0.0159 -0.23037,-0.0468 -0.21869,-0.0756 -0.20487,-0.10221 -0.18898,-0.12698 -0.17073,-0.14947 -0.15036,-0.17011 -0.12802,-0.18873 -0.10326,-0.20512 -0.0764,-0.21967 -0.0474,-0.23208 -0.0162,-0.24244 0.016,-0.24248 0.0471,-0.23208 0.0756,-0.21965 0.10234,-0.20527 0.12698,-0.18872 0.14974,-0.1702 0.17024,-0.14966 0.18868,-0.12701 0.20531,-0.10235 0.2197,-0.0757 0.23208,-0.047 0.24252,-0.0162 0.2424,0.016 0.23217,0.0468 0.21962,0.0756 0.20517,0.10221 0.18867,0.12693 0.17021,0.14952 0.14952,0.17012 0.12688,0.18867 0.1023,0.20518 0.0756,0.21961 0.0467,0.23208 0.016,0.24244 -0.0162,0.24248 -0.0469,0.23208 -0.0757,0.21966 -0.10238,0.20531 -0.12702,0.18872 -0.14966,0.17019 -0.17024,0.14967 -0.18876,0.12701 -0.20522,0.10235 -0.2198,0.0757 -0.23203,0.0469 z" />
    <path
       id="path116"
       style="vector-effect:non-scaling-stroke;fill:none;stroke:#000000;stroke-width:0.01534;stroke-linecap:round;stroke-miterlimit:4;stroke-dasharray:none;-inkscape-stroke:hairline"
       d="m 799.09138,256.52577 -0.24248,0.0162 3e-5,2.2e-4 -0.23985,-0.0159 -0.23037,-0.0469 -0.21869,-0.0755 -0.20491,-0.10227 -0.18885,-0.12693 -0.17077,-0.14956 -0.15045,-0.17011 -0.12793,-0.18868 -0.10332,-0.20522 -0.0764,-0.21966 -0.0474,-0.23203 -0.0162,-0.24245 0.0162,-0.24244 0.0468,-0.23211 0.0757,-0.21971 0.10234,-0.20522 0.12697,-0.18872 0.1497,-0.17019 0.17016,-0.14967 0.18876,-0.12701 0.20527,-0.10235 0.21965,-0.0757 0.23209,-0.0469 0.24248,-0.0161 0.24247,0.0159 0.23205,0.0468 0.21966,0.0756 0.20508,0.10225 0.18877,0.12693 0.17015,0.14948 0.14948,0.17011 0.12697,0.18872 0.10221,0.20517 0.0756,0.21966 0.0469,0.23205 0.0159,0.24244 -0.0161,0.24247 -0.0471,0.23213 -0.0757,0.21965 -0.10234,0.20522 -0.12697,0.18877 -0.14966,0.17024 -0.17024,0.14958 -0.18872,0.12709 -0.20526,0.10235 -0.21962,0.0757 -0.23208,0.0469 z" />
  </g>
</svg>
